<svg xmlns="http://www.w3.org/2000/svg" viewBox="0 0 236 112" width="236" height="112"><rect width="236" height="112" fill="#2E2E2E"/><g transform="translate(74,6) scale(0.62)" fill="none" stroke-width="2.2" stroke-linecap="round" stroke-linejoin="round"><path d="M28 72v60h104V72" stroke="#D9D3CA"/><path d="M24 44h112l8 26H16z" stroke="#D9D3CA"/><path d="M16 70a12.8 12.8 0 0 0 25.600 0a12.800 12.800 0 0 0 25.600 0a12.800 12.800 0 0 0 25.600 0a12.800 12.800 0 0 0 25.600 0a12.800 12.800 0 0 0 25.600 0" stroke="#B68757"/><path d="M68 132V100h24v32" stroke="#D9D3CA"/><rect x="38" y="96" width="20" height="18" stroke="#D9D3CA"/><rect x="102" y="96" width="20" height="18" stroke="#D9D3CA"/><path d="M60 30h40" stroke="#B68757" stroke-width="4"/><circle cx="86" cy="116" r="1.6" stroke="#B68757"/></g><path d="M14 92h46M176 92h46" stroke="#B68757" stroke-width="1.5"/></svg>