<svg xmlns="http://www.w3.org/2000/svg" viewBox="0 0 236 112" width="236" height="112"><rect width="236" height="112" fill="#2E2E2E"/><g transform="translate(74,6) scale(0.62)" fill="none" stroke-width="2.2" stroke-linecap="round" stroke-linejoin="round"><path d="M62 22h36M70 22v38l-30 56a10 10 0 0 0 9 15h62a10 10 0 0 0 9-15L90 60V22" stroke="#D9D3CA"/><path d="M52 100h56" stroke="#B68757"/><circle cx="70" cy="112" r="4" stroke="#B68757"/><circle cx="88" cy="118" r="3" stroke="#B68757"/><circle cx="82" cy="104" r="2.5" stroke="#B68757"/><path d="M126 30v52a9 9 0 0 0 18 0V30M122 30h26M126 60h18" stroke="#B68757"/><path d="M14 44c10 0 10 14 20 14M14 58c10 0 10-14 20-14M14 72c10 0 10 14 20 14M14 86c10 0 10-14 20-14" stroke="#D9D3CA"/></g><path d="M14 92h46M176 92h46" stroke="#B68757" stroke-width="1.5"/></svg>