<svg xmlns="http://www.w3.org/2000/svg" viewBox="0 0 236 112" width="236" height="112"><rect width="236" height="112" fill="#2E2E2E"/><circle cx="16" cy="16" r=".9" fill="#3E3E3E"/><circle cx="32" cy="16" r=".9" fill="#3E3E3E"/><circle cx="48" cy="16" r=".9" fill="#3E3E3E"/><circle cx="64" cy="16" r=".9" fill="#3E3E3E"/><circle cx="80" cy="16" r=".9" fill="#3E3E3E"/><circle cx="96" cy="16" r=".9" fill="#3E3E3E"/><circle cx="112" cy="16" r=".9" fill="#3E3E3E"/><circle cx="128" cy="16" r=".9" fill="#3E3E3E"/><circle cx="144" cy="16" r=".9" fill="#3E3E3E"/><circle cx="160" cy="16" r=".9" fill="#3E3E3E"/><circle cx="176" cy="16" r=".9" fill="#3E3E3E"/><circle cx="192" cy="16" r=".9" fill="#3E3E3E"/><circle cx="208" cy="16" r=".9" fill="#3E3E3E"/><circle cx="224" cy="16" r=".9" fill="#3E3E3E"/><circle cx="16" cy="32" r=".9" fill="#3E3E3E"/><circle cx="32" cy="32" r=".9" fill="#3E3E3E"/><circle cx="48" cy="32" r=".9" fill="#3E3E3E"/><circle cx="64" cy="32" r=".9" fill="#3E3E3E"/><circle cx="80" cy="32" r=".9" fill="#3E3E3E"/><circle cx="96" cy="32" r=".9" fill="#3E3E3E"/><circle cx="112" cy="32" r=".9" fill="#3E3E3E"/><circle cx="128" cy="32" r=".9" fill="#3E3E3E"/><circle cx="144" cy="32" r=".9" fill="#3E3E3E"/><circle cx="160" cy="32" r=".9" fill="#3E3E3E"/><circle cx="176" cy="32" r=".9" fill="#3E3E3E"/><circle cx="192" cy="32" r=".9" fill="#3E3E3E"/><circle cx="208" cy="32" r=".9" fill="#3E3E3E"/><circle cx="224" cy="32" r=".9" fill="#3E3E3E"/><circle cx="16" cy="48" r=".9" fill="#3E3E3E"/><circle cx="32" cy="48" r=".9" fill="#3E3E3E"/><circle cx="48" cy="48" r=".9" fill="#3E3E3E"/><circle cx="64" cy="48" r=".9" fill="#3E3E3E"/><circle cx="80" cy="48" r=".9" fill="#3E3E3E"/><circle cx="96" cy="48" r=".9" fill="#3E3E3E"/><circle cx="112" cy="48" r=".9" fill="#3E3E3E"/><circle cx="128" cy="48" r=".9" fill="#3E3E3E"/><circle cx="144" cy="48" r=".9" fill="#3E3E3E"/><circle cx="160" cy="48" r=".9" fill="#3E3E3E"/><circle cx="176" cy="48" r=".9" fill="#3E3E3E"/><circle cx="192" cy="48" r=".9" fill="#3E3E3E"/><circle cx="208" cy="48" r=".9" fill="#3E3E3E"/><circle cx="224" cy="48" r=".9" fill="#3E3E3E"/><circle cx="16" cy="64" r=".9" fill="#3E3E3E"/><circle cx="32" cy="64" r=".9" fill="#3E3E3E"/><circle cx="48" cy="64" r=".9" fill="#3E3E3E"/><circle cx="64" cy="64" r=".9" fill="#3E3E3E"/><circle cx="80" cy="64" r=".9" fill="#3E3E3E"/><circle cx="96" cy="64" r=".9" fill="#3E3E3E"/><circle cx="112" cy="64" r=".9" fill="#3E3E3E"/><circle cx="128" cy="64" r=".9" fill="#3E3E3E"/><circle cx="144" cy="64" r=".9" fill="#3E3E3E"/><circle cx="160" cy="64" r=".9" fill="#3E3E3E"/><circle cx="176" cy="64" r=".9" fill="#3E3E3E"/><circle cx="192" cy="64" r=".9" fill="#3E3E3E"/><circle cx="208" cy="64" r=".9" fill="#3E3E3E"/><circle cx="224" cy="64" r=".9" fill="#3E3E3E"/><circle cx="16" cy="80" r=".9" fill="#3E3E3E"/><circle cx="32" cy="80" r=".9" fill="#3E3E3E"/><circle cx="48" cy="80" r=".9" fill="#3E3E3E"/><circle cx="64" cy="80" r=".9" fill="#3E3E3E"/><circle cx="80" cy="80" r=".9" fill="#3E3E3E"/><circle cx="96" cy="80" r=".9" fill="#3E3E3E"/><circle cx="112" cy="80" r=".9" fill="#3E3E3E"/><circle cx="128" cy="80" r=".9" fill="#3E3E3E"/><circle cx="144" cy="80" r=".9" fill="#3E3E3E"/><circle cx="160" cy="80" r=".9" fill="#3E3E3E"/><circle cx="176" cy="80" r=".9" fill="#3E3E3E"/><circle cx="192" cy="80" r=".9" fill="#3E3E3E"/><circle cx="208" cy="80" r=".9" fill="#3E3E3E"/><circle cx="224" cy="80" r=".9" fill="#3E3E3E"/><circle cx="16" cy="96" r=".9" fill="#3E3E3E"/><circle cx="32" cy="96" r=".9" fill="#3E3E3E"/><circle cx="48" cy="96" r=".9" fill="#3E3E3E"/><circle cx="64" cy="96" r=".9" fill="#3E3E3E"/><circle cx="80" cy="96" r=".9" fill="#3E3E3E"/><circle cx="96" cy="96" r=".9" fill="#3E3E3E"/><circle cx="112" cy="96" r=".9" fill="#3E3E3E"/><circle cx="128" cy="96" r=".9" fill="#3E3E3E"/><circle cx="144" cy="96" r=".9" fill="#3E3E3E"/><circle cx="160" cy="96" r=".9" fill="#3E3E3E"/><circle cx="176" cy="96" r=".9" fill="#3E3E3E"/><circle cx="192" cy="96" r=".9" fill="#3E3E3E"/><circle cx="208" cy="96" r=".9" fill="#3E3E3E"/><circle cx="224" cy="96" r=".9" fill="#3E3E3E"/><path d="M70 58L96 58" stroke="#878D95" stroke-width="1.1" stroke-dasharray="1 5" stroke-linecap="round" fill="none"/><path d="M146 58L172 58" stroke="#878D95" stroke-width="1.1" stroke-dasharray="1 5" stroke-linecap="round" fill="none"/><g transform="translate(8 24) scale(0.66)" fill="none" stroke="#B68757" stroke-width="2.424" stroke-linecap="round" stroke-linejoin="round"><path d="M45 30C28 30 24 44 24 58" stroke="#878D95"/><rect x="34" y="36" width="32" height="54" rx="9" fill="#2E2E2E"/><rect x="44" y="26" width="12" height="10" fill="#2E2E2E"/><path d="M38 22H60L72 14" stroke="#D6AD82"/><path d="M46 22V16H54V22"/><rect x="41" y="52" width="18" height="14" rx="2" fill="#B68757" fill-opacity=".28"/><path d="M34 78H66" stroke="#878D95"/></g><g transform="translate(86 24) scale(0.66)" fill="none" stroke="#B68757" stroke-width="2.424" stroke-linecap="round" stroke-linejoin="round"><rect x="22" y="12" width="56" height="76" rx="2" fill="#2E2E2E"/><rect x="30" y="22" width="9" height="9" stroke="#878D95"/><rect x="45.5" y="22" width="9" height="9" stroke="#878D95"/><rect x="61" y="22" width="9" height="9" stroke="#878D95"/><rect x="30" y="37" width="9" height="9" stroke="#878D95"/><rect x="45.5" y="37" width="9" height="9" stroke="#878D95"/><rect x="61" y="37" width="9" height="9" stroke="#878D95"/><rect x="30" y="52" width="9" height="9" stroke="#878D95"/><rect x="45.5" y="52" width="9" height="9" stroke="#878D95"/><rect x="61" y="52" width="9" height="9" stroke="#878D95"/><rect x="43" y="70" width="14" height="18" fill="#B68757" fill-opacity=".28"/><path d="M12 88H88"/><path d="M22 12L50 4L78 12" stroke="#D6AD82"/></g><g transform="translate(164 24) scale(0.66)" fill="none" stroke="#B68757" stroke-width="2.424" stroke-linecap="round" stroke-linejoin="round"><rect x="16" y="8" width="56" height="78" rx="4" fill="#2E2E2E"/><path d="M25 26l4 4l7-9" stroke="#D6AD82"/><path d="M43 26H62" stroke="#878D95"/><path d="M25 44l4 4l7-9" stroke="#D6AD82"/><path d="M43 44H62" stroke="#878D95"/><path d="M25 62l4 4l7-9" stroke="#D6AD82"/><path d="M43 62H62" stroke="#878D95"/><circle cx="70" cy="68" r="15" fill="#2E2E2E"/><path d="M81 79L93 91" stroke-width="3.2"/></g></svg>