<svg xmlns="http://www.w3.org/2000/svg" viewBox="0 0 720 150" width="720" height="150"><rect width="720" height="150" fill="#2E2E2E"/><circle cx="16" cy="16" r=".9" fill="#3E3E3E"/><circle cx="32" cy="16" r=".9" fill="#3E3E3E"/><circle cx="48" cy="16" r=".9" fill="#3E3E3E"/><circle cx="64" cy="16" r=".9" fill="#3E3E3E"/><circle cx="80" cy="16" r=".9" fill="#3E3E3E"/><circle cx="96" cy="16" r=".9" fill="#3E3E3E"/><circle cx="112" cy="16" r=".9" fill="#3E3E3E"/><circle cx="128" cy="16" r=".9" fill="#3E3E3E"/><circle cx="144" cy="16" r=".9" fill="#3E3E3E"/><circle cx="160" cy="16" r=".9" fill="#3E3E3E"/><circle cx="176" cy="16" r=".9" fill="#3E3E3E"/><circle cx="192" cy="16" r=".9" fill="#3E3E3E"/><circle cx="208" cy="16" r=".9" fill="#3E3E3E"/><circle cx="224" cy="16" r=".9" fill="#3E3E3E"/><circle cx="240" cy="16" r=".9" fill="#3E3E3E"/><circle cx="256" cy="16" r=".9" fill="#3E3E3E"/><circle cx="272" cy="16" r=".9" fill="#3E3E3E"/><circle cx="288" cy="16" r=".9" fill="#3E3E3E"/><circle cx="304" cy="16" r=".9" fill="#3E3E3E"/><circle cx="320" cy="16" r=".9" fill="#3E3E3E"/><circle cx="336" cy="16" r=".9" fill="#3E3E3E"/><circle cx="352" cy="16" r=".9" fill="#3E3E3E"/><circle cx="368" cy="16" r=".9" fill="#3E3E3E"/><circle cx="384" cy="16" r=".9" fill="#3E3E3E"/><circle cx="400" cy="16" r=".9" fill="#3E3E3E"/><circle cx="416" cy="16" r=".9" fill="#3E3E3E"/><circle cx="432" cy="16" r=".9" fill="#3E3E3E"/><circle cx="448" cy="16" r=".9" fill="#3E3E3E"/><circle cx="464" cy="16" r=".9" fill="#3E3E3E"/><circle cx="480" cy="16" r=".9" fill="#3E3E3E"/><circle cx="496" cy="16" r=".9" fill="#3E3E3E"/><circle cx="512" cy="16" r=".9" fill="#3E3E3E"/><circle cx="528" cy="16" r=".9" fill="#3E3E3E"/><circle cx="544" cy="16" r=".9" fill="#3E3E3E"/><circle cx="560" cy="16" r=".9" fill="#3E3E3E"/><circle cx="576" cy="16" r=".9" fill="#3E3E3E"/><circle cx="592" cy="16" r=".9" fill="#3E3E3E"/><circle cx="608" cy="16" r=".9" fill="#3E3E3E"/><circle cx="624" cy="16" r=".9" fill="#3E3E3E"/><circle cx="640" cy="16" r=".9" fill="#3E3E3E"/><circle cx="656" cy="16" r=".9" fill="#3E3E3E"/><circle cx="672" cy="16" r=".9" fill="#3E3E3E"/><circle cx="688" cy="16" r=".9" fill="#3E3E3E"/><circle cx="704" cy="16" r=".9" fill="#3E3E3E"/><circle cx="16" cy="32" r=".9" fill="#3E3E3E"/><circle cx="32" cy="32" r=".9" fill="#3E3E3E"/><circle cx="48" cy="32" r=".9" fill="#3E3E3E"/><circle cx="64" cy="32" r=".9" fill="#3E3E3E"/><circle cx="80" cy="32" r=".9" fill="#3E3E3E"/><circle cx="96" cy="32" r=".9" fill="#3E3E3E"/><circle cx="112" cy="32" r=".9" fill="#3E3E3E"/><circle cx="128" cy="32" r=".9" fill="#3E3E3E"/><circle cx="144" cy="32" r=".9" fill="#3E3E3E"/><circle cx="160" cy="32" r=".9" fill="#3E3E3E"/><circle cx="176" cy="32" r=".9" fill="#3E3E3E"/><circle cx="192" cy="32" r=".9" fill="#3E3E3E"/><circle cx="208" cy="32" r=".9" fill="#3E3E3E"/><circle cx="224" cy="32" r=".9" fill="#3E3E3E"/><circle cx="240" cy="32" r=".9" fill="#3E3E3E"/><circle cx="256" cy="32" r=".9" fill="#3E3E3E"/><circle cx="272" cy="32" r=".9" fill="#3E3E3E"/><circle cx="288" cy="32" r=".9" fill="#3E3E3E"/><circle cx="304" cy="32" r=".9" fill="#3E3E3E"/><circle cx="320" cy="32" r=".9" fill="#3E3E3E"/><circle cx="336" cy="32" r=".9" fill="#3E3E3E"/><circle cx="352" cy="32" r=".9" fill="#3E3E3E"/><circle cx="368" cy="32" r=".9" fill="#3E3E3E"/><circle cx="384" cy="32" r=".9" fill="#3E3E3E"/><circle cx="400" cy="32" r=".9" fill="#3E3E3E"/><circle cx="416" cy="32" r=".9" fill="#3E3E3E"/><circle cx="432" cy="32" r=".9" fill="#3E3E3E"/><circle cx="448" cy="32" r=".9" fill="#3E3E3E"/><circle cx="464" cy="32" r=".9" fill="#3E3E3E"/><circle cx="480" cy="32" r=".9" fill="#3E3E3E"/><circle cx="496" cy="32" r=".9" fill="#3E3E3E"/><circle cx="512" cy="32" r=".9" fill="#3E3E3E"/><circle cx="528" cy="32" r=".9" fill="#3E3E3E"/><circle cx="544" cy="32" r=".9" fill="#3E3E3E"/><circle cx="560" cy="32" r=".9" fill="#3E3E3E"/><circle cx="576" cy="32" r=".9" fill="#3E3E3E"/><circle cx="592" cy="32" r=".9" fill="#3E3E3E"/><circle cx="608" cy="32" r=".9" fill="#3E3E3E"/><circle cx="624" cy="32" r=".9" fill="#3E3E3E"/><circle cx="640" cy="32" r=".9" fill="#3E3E3E"/><circle cx="656" cy="32" r=".9" fill="#3E3E3E"/><circle cx="672" cy="32" r=".9" fill="#3E3E3E"/><circle cx="688" cy="32" r=".9" fill="#3E3E3E"/><circle cx="704" cy="32" r=".9" fill="#3E3E3E"/><circle cx="16" cy="48" r=".9" fill="#3E3E3E"/><circle cx="32" cy="48" r=".9" fill="#3E3E3E"/><circle cx="48" cy="48" r=".9" fill="#3E3E3E"/><circle cx="64" cy="48" r=".9" fill="#3E3E3E"/><circle cx="80" cy="48" r=".9" fill="#3E3E3E"/><circle cx="96" cy="48" r=".9" fill="#3E3E3E"/><circle cx="112" cy="48" r=".9" fill="#3E3E3E"/><circle cx="128" cy="48" r=".9" fill="#3E3E3E"/><circle cx="144" cy="48" r=".9" fill="#3E3E3E"/><circle cx="160" cy="48" r=".9" fill="#3E3E3E"/><circle cx="176" cy="48" r=".9" fill="#3E3E3E"/><circle cx="192" cy="48" r=".9" fill="#3E3E3E"/><circle cx="208" cy="48" r=".9" fill="#3E3E3E"/><circle cx="224" cy="48" r=".9" fill="#3E3E3E"/><circle cx="240" cy="48" r=".9" fill="#3E3E3E"/><circle cx="256" cy="48" r=".9" fill="#3E3E3E"/><circle cx="272" cy="48" r=".9" fill="#3E3E3E"/><circle cx="288" cy="48" r=".9" fill="#3E3E3E"/><circle cx="304" cy="48" r=".9" fill="#3E3E3E"/><circle cx="320" cy="48" r=".9" fill="#3E3E3E"/><circle cx="336" cy="48" r=".9" fill="#3E3E3E"/><circle cx="352" cy="48" r=".9" fill="#3E3E3E"/><circle cx="368" cy="48" r=".9" fill="#3E3E3E"/><circle cx="384" cy="48" r=".9" fill="#3E3E3E"/><circle cx="400" cy="48" r=".9" fill="#3E3E3E"/><circle cx="416" cy="48" r=".9" fill="#3E3E3E"/><circle cx="432" cy="48" r=".9" fill="#3E3E3E"/><circle cx="448" cy="48" r=".9" fill="#3E3E3E"/><circle cx="464" cy="48" r=".9" fill="#3E3E3E"/><circle cx="480" cy="48" r=".9" fill="#3E3E3E"/><circle cx="496" cy="48" r=".9" fill="#3E3E3E"/><circle cx="512" cy="48" r=".9" fill="#3E3E3E"/><circle cx="528" cy="48" r=".9" fill="#3E3E3E"/><circle cx="544" cy="48" r=".9" fill="#3E3E3E"/><circle cx="560" cy="48" r=".9" fill="#3E3E3E"/><circle cx="576" cy="48" r=".9" fill="#3E3E3E"/><circle cx="592" cy="48" r=".9" fill="#3E3E3E"/><circle cx="608" cy="48" r=".9" fill="#3E3E3E"/><circle cx="624" cy="48" r=".9" fill="#3E3E3E"/><circle cx="640" cy="48" r=".9" fill="#3E3E3E"/><circle cx="656" cy="48" r=".9" fill="#3E3E3E"/><circle cx="672" cy="48" r=".9" fill="#3E3E3E"/><circle cx="688" cy="48" r=".9" fill="#3E3E3E"/><circle cx="704" cy="48" r=".9" fill="#3E3E3E"/><circle cx="16" cy="64" r=".9" fill="#3E3E3E"/><circle cx="32" cy="64" r=".9" fill="#3E3E3E"/><circle cx="48" cy="64" r=".9" fill="#3E3E3E"/><circle cx="64" cy="64" r=".9" fill="#3E3E3E"/><circle cx="80" cy="64" r=".9" fill="#3E3E3E"/><circle cx="96" cy="64" r=".9" fill="#3E3E3E"/><circle cx="112" cy="64" r=".9" fill="#3E3E3E"/><circle cx="128" cy="64" r=".9" fill="#3E3E3E"/><circle cx="144" cy="64" r=".9" fill="#3E3E3E"/><circle cx="160" cy="64" r=".9" fill="#3E3E3E"/><circle cx="176" cy="64" r=".9" fill="#3E3E3E"/><circle cx="192" cy="64" r=".9" fill="#3E3E3E"/><circle cx="208" cy="64" r=".9" fill="#3E3E3E"/><circle cx="224" cy="64" r=".9" fill="#3E3E3E"/><circle cx="240" cy="64" r=".9" fill="#3E3E3E"/><circle cx="256" cy="64" r=".9" fill="#3E3E3E"/><circle cx="272" cy="64" r=".9" fill="#3E3E3E"/><circle cx="288" cy="64" r=".9" fill="#3E3E3E"/><circle cx="304" cy="64" r=".9" fill="#3E3E3E"/><circle cx="320" cy="64" r=".9" fill="#3E3E3E"/><circle cx="336" cy="64" r=".9" fill="#3E3E3E"/><circle cx="352" cy="64" r=".9" fill="#3E3E3E"/><circle cx="368" cy="64" r=".9" fill="#3E3E3E"/><circle cx="384" cy="64" r=".9" fill="#3E3E3E"/><circle cx="400" cy="64" r=".9" fill="#3E3E3E"/><circle cx="416" cy="64" r=".9" fill="#3E3E3E"/><circle cx="432" cy="64" r=".9" fill="#3E3E3E"/><circle cx="448" cy="64" r=".9" fill="#3E3E3E"/><circle cx="464" cy="64" r=".9" fill="#3E3E3E"/><circle cx="480" cy="64" r=".9" fill="#3E3E3E"/><circle cx="496" cy="64" r=".9" fill="#3E3E3E"/><circle cx="512" cy="64" r=".9" fill="#3E3E3E"/><circle cx="528" cy="64" r=".9" fill="#3E3E3E"/><circle cx="544" cy="64" r=".9" fill="#3E3E3E"/><circle cx="560" cy="64" r=".9" fill="#3E3E3E"/><circle cx="576" cy="64" r=".9" fill="#3E3E3E"/><circle cx="592" cy="64" r=".9" fill="#3E3E3E"/><circle cx="608" cy="64" r=".9" fill="#3E3E3E"/><circle cx="624" cy="64" r=".9" fill="#3E3E3E"/><circle cx="640" cy="64" r=".9" fill="#3E3E3E"/><circle cx="656" cy="64" r=".9" fill="#3E3E3E"/><circle cx="672" cy="64" r=".9" fill="#3E3E3E"/><circle cx="688" cy="64" r=".9" fill="#3E3E3E"/><circle cx="704" cy="64" r=".9" fill="#3E3E3E"/><circle cx="16" cy="80" r=".9" fill="#3E3E3E"/><circle cx="32" cy="80" r=".9" fill="#3E3E3E"/><circle cx="48" cy="80" r=".9" fill="#3E3E3E"/><circle cx="64" cy="80" r=".9" fill="#3E3E3E"/><circle cx="80" cy="80" r=".9" fill="#3E3E3E"/><circle cx="96" cy="80" r=".9" fill="#3E3E3E"/><circle cx="112" cy="80" r=".9" fill="#3E3E3E"/><circle cx="128" cy="80" r=".9" fill="#3E3E3E"/><circle cx="144" cy="80" r=".9" fill="#3E3E3E"/><circle cx="160" cy="80" r=".9" fill="#3E3E3E"/><circle cx="176" cy="80" r=".9" fill="#3E3E3E"/><circle cx="192" cy="80" r=".9" fill="#3E3E3E"/><circle cx="208" cy="80" r=".9" fill="#3E3E3E"/><circle cx="224" cy="80" r=".9" fill="#3E3E3E"/><circle cx="240" cy="80" r=".9" fill="#3E3E3E"/><circle cx="256" cy="80" r=".9" fill="#3E3E3E"/><circle cx="272" cy="80" r=".9" fill="#3E3E3E"/><circle cx="288" cy="80" r=".9" fill="#3E3E3E"/><circle cx="304" cy="80" r=".9" fill="#3E3E3E"/><circle cx="320" cy="80" r=".9" fill="#3E3E3E"/><circle cx="336" cy="80" r=".9" fill="#3E3E3E"/><circle cx="352" cy="80" r=".9" fill="#3E3E3E"/><circle cx="368" cy="80" r=".9" fill="#3E3E3E"/><circle cx="384" cy="80" r=".9" fill="#3E3E3E"/><circle cx="400" cy="80" r=".9" fill="#3E3E3E"/><circle cx="416" cy="80" r=".9" fill="#3E3E3E"/><circle cx="432" cy="80" r=".9" fill="#3E3E3E"/><circle cx="448" cy="80" r=".9" fill="#3E3E3E"/><circle cx="464" cy="80" r=".9" fill="#3E3E3E"/><circle cx="480" cy="80" r=".9" fill="#3E3E3E"/><circle cx="496" cy="80" r=".9" fill="#3E3E3E"/><circle cx="512" cy="80" r=".9" fill="#3E3E3E"/><circle cx="528" cy="80" r=".9" fill="#3E3E3E"/><circle cx="544" cy="80" r=".9" fill="#3E3E3E"/><circle cx="560" cy="80" r=".9" fill="#3E3E3E"/><circle cx="576" cy="80" r=".9" fill="#3E3E3E"/><circle cx="592" cy="80" r=".9" fill="#3E3E3E"/><circle cx="608" cy="80" r=".9" fill="#3E3E3E"/><circle cx="624" cy="80" r=".9" fill="#3E3E3E"/><circle cx="640" cy="80" r=".9" fill="#3E3E3E"/><circle cx="656" cy="80" r=".9" fill="#3E3E3E"/><circle cx="672" cy="80" r=".9" fill="#3E3E3E"/><circle cx="688" cy="80" r=".9" fill="#3E3E3E"/><circle cx="704" cy="80" r=".9" fill="#3E3E3E"/><circle cx="16" cy="96" r=".9" fill="#3E3E3E"/><circle cx="32" cy="96" r=".9" fill="#3E3E3E"/><circle cx="48" cy="96" r=".9" fill="#3E3E3E"/><circle cx="64" cy="96" r=".9" fill="#3E3E3E"/><circle cx="80" cy="96" r=".9" fill="#3E3E3E"/><circle cx="96" cy="96" r=".9" fill="#3E3E3E"/><circle cx="112" cy="96" r=".9" fill="#3E3E3E"/><circle cx="128" cy="96" r=".9" fill="#3E3E3E"/><circle cx="144" cy="96" r=".9" fill="#3E3E3E"/><circle cx="160" cy="96" r=".9" fill="#3E3E3E"/><circle cx="176" cy="96" r=".9" fill="#3E3E3E"/><circle cx="192" cy="96" r=".9" fill="#3E3E3E"/><circle cx="208" cy="96" r=".9" fill="#3E3E3E"/><circle cx="224" cy="96" r=".9" fill="#3E3E3E"/><circle cx="240" cy="96" r=".9" fill="#3E3E3E"/><circle cx="256" cy="96" r=".9" fill="#3E3E3E"/><circle cx="272" cy="96" r=".9" fill="#3E3E3E"/><circle cx="288" cy="96" r=".9" fill="#3E3E3E"/><circle cx="304" cy="96" r=".9" fill="#3E3E3E"/><circle cx="320" cy="96" r=".9" fill="#3E3E3E"/><circle cx="336" cy="96" r=".9" fill="#3E3E3E"/><circle cx="352" cy="96" r=".9" fill="#3E3E3E"/><circle cx="368" cy="96" r=".9" fill="#3E3E3E"/><circle cx="384" cy="96" r=".9" fill="#3E3E3E"/><circle cx="400" cy="96" r=".9" fill="#3E3E3E"/><circle cx="416" cy="96" r=".9" fill="#3E3E3E"/><circle cx="432" cy="96" r=".9" fill="#3E3E3E"/><circle cx="448" cy="96" r=".9" fill="#3E3E3E"/><circle cx="464" cy="96" r=".9" fill="#3E3E3E"/><circle cx="480" cy="96" r=".9" fill="#3E3E3E"/><circle cx="496" cy="96" r=".9" fill="#3E3E3E"/><circle cx="512" cy="96" r=".9" fill="#3E3E3E"/><circle cx="528" cy="96" r=".9" fill="#3E3E3E"/><circle cx="544" cy="96" r=".9" fill="#3E3E3E"/><circle cx="560" cy="96" r=".9" fill="#3E3E3E"/><circle cx="576" cy="96" r=".9" fill="#3E3E3E"/><circle cx="592" cy="96" r=".9" fill="#3E3E3E"/><circle cx="608" cy="96" r=".9" fill="#3E3E3E"/><circle cx="624" cy="96" r=".9" fill="#3E3E3E"/><circle cx="640" cy="96" r=".9" fill="#3E3E3E"/><circle cx="656" cy="96" r=".9" fill="#3E3E3E"/><circle cx="672" cy="96" r=".9" fill="#3E3E3E"/><circle cx="688" cy="96" r=".9" fill="#3E3E3E"/><circle cx="704" cy="96" r=".9" fill="#3E3E3E"/><circle cx="16" cy="112" r=".9" fill="#3E3E3E"/><circle cx="32" cy="112" r=".9" fill="#3E3E3E"/><circle cx="48" cy="112" r=".9" fill="#3E3E3E"/><circle cx="64" cy="112" r=".9" fill="#3E3E3E"/><circle cx="80" cy="112" r=".9" fill="#3E3E3E"/><circle cx="96" cy="112" r=".9" fill="#3E3E3E"/><circle cx="112" cy="112" r=".9" fill="#3E3E3E"/><circle cx="128" cy="112" r=".9" fill="#3E3E3E"/><circle cx="144" cy="112" r=".9" fill="#3E3E3E"/><circle cx="160" cy="112" r=".9" fill="#3E3E3E"/><circle cx="176" cy="112" r=".9" fill="#3E3E3E"/><circle cx="192" cy="112" r=".9" fill="#3E3E3E"/><circle cx="208" cy="112" r=".9" fill="#3E3E3E"/><circle cx="224" cy="112" r=".9" fill="#3E3E3E"/><circle cx="240" cy="112" r=".9" fill="#3E3E3E"/><circle cx="256" cy="112" r=".9" fill="#3E3E3E"/><circle cx="272" cy="112" r=".9" fill="#3E3E3E"/><circle cx="288" cy="112" r=".9" fill="#3E3E3E"/><circle cx="304" cy="112" r=".9" fill="#3E3E3E"/><circle cx="320" cy="112" r=".9" fill="#3E3E3E"/><circle cx="336" cy="112" r=".9" fill="#3E3E3E"/><circle cx="352" cy="112" r=".9" fill="#3E3E3E"/><circle cx="368" cy="112" r=".9" fill="#3E3E3E"/><circle cx="384" cy="112" r=".9" fill="#3E3E3E"/><circle cx="400" cy="112" r=".9" fill="#3E3E3E"/><circle cx="416" cy="112" r=".9" fill="#3E3E3E"/><circle cx="432" cy="112" r=".9" fill="#3E3E3E"/><circle cx="448" cy="112" r=".9" fill="#3E3E3E"/><circle cx="464" cy="112" r=".9" fill="#3E3E3E"/><circle cx="480" cy="112" r=".9" fill="#3E3E3E"/><circle cx="496" cy="112" r=".9" fill="#3E3E3E"/><circle cx="512" cy="112" r=".9" fill="#3E3E3E"/><circle cx="528" cy="112" r=".9" fill="#3E3E3E"/><circle cx="544" cy="112" r=".9" fill="#3E3E3E"/><circle cx="560" cy="112" r=".9" fill="#3E3E3E"/><circle cx="576" cy="112" r=".9" fill="#3E3E3E"/><circle cx="592" cy="112" r=".9" fill="#3E3E3E"/><circle cx="608" cy="112" r=".9" fill="#3E3E3E"/><circle cx="624" cy="112" r=".9" fill="#3E3E3E"/><circle cx="640" cy="112" r=".9" fill="#3E3E3E"/><circle cx="656" cy="112" r=".9" fill="#3E3E3E"/><circle cx="672" cy="112" r=".9" fill="#3E3E3E"/><circle cx="688" cy="112" r=".9" fill="#3E3E3E"/><circle cx="704" cy="112" r=".9" fill="#3E3E3E"/><circle cx="16" cy="128" r=".9" fill="#3E3E3E"/><circle cx="32" cy="128" r=".9" fill="#3E3E3E"/><circle cx="48" cy="128" r=".9" fill="#3E3E3E"/><circle cx="64" cy="128" r=".9" fill="#3E3E3E"/><circle cx="80" cy="128" r=".9" fill="#3E3E3E"/><circle cx="96" cy="128" r=".9" fill="#3E3E3E"/><circle cx="112" cy="128" r=".9" fill="#3E3E3E"/><circle cx="128" cy="128" r=".9" fill="#3E3E3E"/><circle cx="144" cy="128" r=".9" fill="#3E3E3E"/><circle cx="160" cy="128" r=".9" fill="#3E3E3E"/><circle cx="176" cy="128" r=".9" fill="#3E3E3E"/><circle cx="192" cy="128" r=".9" fill="#3E3E3E"/><circle cx="208" cy="128" r=".9" fill="#3E3E3E"/><circle cx="224" cy="128" r=".9" fill="#3E3E3E"/><circle cx="240" cy="128" r=".9" fill="#3E3E3E"/><circle cx="256" cy="128" r=".9" fill="#3E3E3E"/><circle cx="272" cy="128" r=".9" fill="#3E3E3E"/><circle cx="288" cy="128" r=".9" fill="#3E3E3E"/><circle cx="304" cy="128" r=".9" fill="#3E3E3E"/><circle cx="320" cy="128" r=".9" fill="#3E3E3E"/><circle cx="336" cy="128" r=".9" fill="#3E3E3E"/><circle cx="352" cy="128" r=".9" fill="#3E3E3E"/><circle cx="368" cy="128" r=".9" fill="#3E3E3E"/><circle cx="384" cy="128" r=".9" fill="#3E3E3E"/><circle cx="400" cy="128" r=".9" fill="#3E3E3E"/><circle cx="416" cy="128" r=".9" fill="#3E3E3E"/><circle cx="432" cy="128" r=".9" fill="#3E3E3E"/><circle cx="448" cy="128" r=".9" fill="#3E3E3E"/><circle cx="464" cy="128" r=".9" fill="#3E3E3E"/><circle cx="480" cy="128" r=".9" fill="#3E3E3E"/><circle cx="496" cy="128" r=".9" fill="#3E3E3E"/><circle cx="512" cy="128" r=".9" fill="#3E3E3E"/><circle cx="528" cy="128" r=".9" fill="#3E3E3E"/><circle cx="544" cy="128" r=".9" fill="#3E3E3E"/><circle cx="560" cy="128" r=".9" fill="#3E3E3E"/><circle cx="576" cy="128" r=".9" fill="#3E3E3E"/><circle cx="592" cy="128" r=".9" fill="#3E3E3E"/><circle cx="608" cy="128" r=".9" fill="#3E3E3E"/><circle cx="624" cy="128" r=".9" fill="#3E3E3E"/><circle cx="640" cy="128" r=".9" fill="#3E3E3E"/><circle cx="656" cy="128" r=".9" fill="#3E3E3E"/><circle cx="672" cy="128" r=".9" fill="#3E3E3E"/><circle cx="688" cy="128" r=".9" fill="#3E3E3E"/><circle cx="704" cy="128" r=".9" fill="#3E3E3E"/><circle cx="16" cy="144" r=".9" fill="#3E3E3E"/><circle cx="32" cy="144" r=".9" fill="#3E3E3E"/><circle cx="48" cy="144" r=".9" fill="#3E3E3E"/><circle cx="64" cy="144" r=".9" fill="#3E3E3E"/><circle cx="80" cy="144" r=".9" fill="#3E3E3E"/><circle cx="96" cy="144" r=".9" fill="#3E3E3E"/><circle cx="112" cy="144" r=".9" fill="#3E3E3E"/><circle cx="128" cy="144" r=".9" fill="#3E3E3E"/><circle cx="144" cy="144" r=".9" fill="#3E3E3E"/><circle cx="160" cy="144" r=".9" fill="#3E3E3E"/><circle cx="176" cy="144" r=".9" fill="#3E3E3E"/><circle cx="192" cy="144" r=".9" fill="#3E3E3E"/><circle cx="208" cy="144" r=".9" fill="#3E3E3E"/><circle cx="224" cy="144" r=".9" fill="#3E3E3E"/><circle cx="240" cy="144" r=".9" fill="#3E3E3E"/><circle cx="256" cy="144" r=".9" fill="#3E3E3E"/><circle cx="272" cy="144" r=".9" fill="#3E3E3E"/><circle cx="288" cy="144" r=".9" fill="#3E3E3E"/><circle cx="304" cy="144" r=".9" fill="#3E3E3E"/><circle cx="320" cy="144" r=".9" fill="#3E3E3E"/><circle cx="336" cy="144" r=".9" fill="#3E3E3E"/><circle cx="352" cy="144" r=".9" fill="#3E3E3E"/><circle cx="368" cy="144" r=".9" fill="#3E3E3E"/><circle cx="384" cy="144" r=".9" fill="#3E3E3E"/><circle cx="400" cy="144" r=".9" fill="#3E3E3E"/><circle cx="416" cy="144" r=".9" fill="#3E3E3E"/><circle cx="432" cy="144" r=".9" fill="#3E3E3E"/><circle cx="448" cy="144" r=".9" fill="#3E3E3E"/><circle cx="464" cy="144" r=".9" fill="#3E3E3E"/><circle cx="480" cy="144" r=".9" fill="#3E3E3E"/><circle cx="496" cy="144" r=".9" fill="#3E3E3E"/><circle cx="512" cy="144" r=".9" fill="#3E3E3E"/><circle cx="528" cy="144" r=".9" fill="#3E3E3E"/><circle cx="544" cy="144" r=".9" fill="#3E3E3E"/><circle cx="560" cy="144" r=".9" fill="#3E3E3E"/><circle cx="576" cy="144" r=".9" fill="#3E3E3E"/><circle cx="592" cy="144" r=".9" fill="#3E3E3E"/><circle cx="608" cy="144" r=".9" fill="#3E3E3E"/><circle cx="624" cy="144" r=".9" fill="#3E3E3E"/><circle cx="640" cy="144" r=".9" fill="#3E3E3E"/><circle cx="656" cy="144" r=".9" fill="#3E3E3E"/><circle cx="672" cy="144" r=".9" fill="#3E3E3E"/><circle cx="688" cy="144" r=".9" fill="#3E3E3E"/><circle cx="704" cy="144" r=".9" fill="#3E3E3E"/><rect x="10.5" y="10.5" width="699" height="129" fill="none" stroke="#B68757" stroke-opacity=".38" stroke-width="1"/><path d="M106.0 75L134.0 75" stroke="#878D95" stroke-width="1.1" stroke-dasharray="1 5" stroke-linecap="round" fill="none"/><path d="M226.0 75L254.0 75" stroke="#878D95" stroke-width="1.1" stroke-dasharray="1 5" stroke-linecap="round" fill="none"/><path d="M346.0 75L374.0 75" stroke="#878D95" stroke-width="1.1" stroke-dasharray="1 5" stroke-linecap="round" fill="none"/><path d="M466.0 75L494.0 75" stroke="#878D95" stroke-width="1.1" stroke-dasharray="1 5" stroke-linecap="round" fill="none"/><path d="M586.0 75L614.0 75" stroke="#878D95" stroke-width="1.1" stroke-dasharray="1 5" stroke-linecap="round" fill="none"/><g transform="translate(19.0 34) scale(0.82)" fill="none" stroke="#B68757" stroke-width="1.951" stroke-linecap="round" stroke-linejoin="round"><path d="M45 30C28 30 24 44 24 58" stroke="#878D95"/><rect x="34" y="36" width="32" height="54" rx="9" fill="#2E2E2E"/><rect x="44" y="26" width="12" height="10" fill="#2E2E2E"/><path d="M38 22H60L72 14" stroke="#D6AD82"/><path d="M46 22V16H54V22"/><rect x="41" y="52" width="18" height="14" rx="2" fill="#B68757" fill-opacity=".28"/><path d="M34 78H66" stroke="#878D95"/></g><g transform="translate(139.0 34) scale(0.82)" fill="none" stroke="#B68757" stroke-width="1.951" stroke-linecap="round" stroke-linejoin="round"><path d="M50 8L84 20V48C84 68 70 84 50 92C30 84 16 68 16 48V20Z" fill="#2E2E2E"/><path d="M34 50L46 62L68 38" stroke="#D6AD82"/></g><g transform="translate(259.0 34) scale(0.82)" fill="none" stroke="#B68757" stroke-width="1.951" stroke-linecap="round" stroke-linejoin="round"><rect x="22" y="12" width="56" height="76" rx="2" fill="#2E2E2E"/><rect x="30" y="22" width="9" height="9" stroke="#878D95"/><rect x="45.5" y="22" width="9" height="9" stroke="#878D95"/><rect x="61" y="22" width="9" height="9" stroke="#878D95"/><rect x="30" y="37" width="9" height="9" stroke="#878D95"/><rect x="45.5" y="37" width="9" height="9" stroke="#878D95"/><rect x="61" y="37" width="9" height="9" stroke="#878D95"/><rect x="30" y="52" width="9" height="9" stroke="#878D95"/><rect x="45.5" y="52" width="9" height="9" stroke="#878D95"/><rect x="61" y="52" width="9" height="9" stroke="#878D95"/><rect x="43" y="70" width="14" height="18" fill="#B68757" fill-opacity=".28"/><path d="M12 88H88"/><path d="M22 12L50 4L78 12" stroke="#D6AD82"/></g><g transform="translate(379.0 34) scale(0.82)" fill="none" stroke="#B68757" stroke-width="1.951" stroke-linecap="round" stroke-linejoin="round"><rect x="30" y="8" width="40" height="26" rx="1.5"/><path d="M37 16H63M37 22H55" stroke="#878D95"/><rect x="14" y="32" width="72" height="12" rx="3" fill="#2E2E2E"/><rect x="8" y="44" width="84" height="30" rx="4" fill="#2E2E2E"/><rect x="60" y="51" width="22" height="8" rx="2" fill="#B68757" stroke="none"/><circle cx="19" cy="55" r="2.4" fill="#D6AD82" stroke="none"/><circle cx="27" cy="55" r="2.4"/><path d="M20 66H80"/><rect x="16" y="74" width="68" height="16" rx="3" fill="#2E2E2E"/><path d="M40 82H60"/></g><g transform="translate(499.0 34) scale(0.82)" fill="none" stroke="#B68757" stroke-width="1.951" stroke-linecap="round" stroke-linejoin="round"><path d="M31 64H69L78 80A6 6 0 0 1 73 90H27A6 6 0 0 1 22 80Z" fill="#B68757" fill-opacity=".28" stroke="none"/><path d="M39 10H61"/><path d="M44 10V40L22 80A6 6 0 0 0 27 90H73A6 6 0 0 0 78 80L56 40V10"/><path d="M31 64H69" stroke="#D6AD82"/><circle cx="44" cy="76" r="3"/><circle cx="57" cy="80" r="2"/><circle cx="52" cy="54" r="2" stroke="#878D95"/><circle cx="48" cy="44" r="1.5" stroke="#878D95"/></g><g transform="translate(619.0 34) scale(0.82)" fill="none" stroke="#B68757" stroke-width="1.951" stroke-linecap="round" stroke-linejoin="round"><circle cx="50" cy="54" r="38" fill="#2E2E2E"/><path d="M26.6 67.5L21.4 70.5" stroke="#878D95"/><path d="M23.0 54.0L17.0 54.0" stroke="#878D95"/><path d="M26.6 40.5L21.4 37.5" stroke="#878D95"/><path d="M36.5 30.6L33.5 25.4" stroke="#878D95"/><path d="M50.0 27.0L50.0 21.0" stroke="#878D95"/><path d="M63.5 30.6L66.5 25.4" stroke="#878D95"/><path d="M73.4 40.5L78.6 37.5" stroke="#878D95"/><path d="M77.0 54.0L83.0 54.0" stroke="#878D95"/><path d="M73.4 67.5L78.6 70.5" stroke="#878D95"/><path d="M50 54L66.7 35.4" stroke="#D6AD82"/><circle cx="50" cy="54" r="4" fill="#B68757" stroke="none"/><path d="M36 76H64"/></g></svg>