<svg xmlns="http://www.w3.org/2000/svg" viewBox="0 0 344 390" width="344" height="390"><rect width="344" height="390" fill="#2E2E2E"/><circle cx="16" cy="16" r=".9" fill="#3E3E3E"/><circle cx="32" cy="16" r=".9" fill="#3E3E3E"/><circle cx="48" cy="16" r=".9" fill="#3E3E3E"/><circle cx="64" cy="16" r=".9" fill="#3E3E3E"/><circle cx="80" cy="16" r=".9" fill="#3E3E3E"/><circle cx="96" cy="16" r=".9" fill="#3E3E3E"/><circle cx="112" cy="16" r=".9" fill="#3E3E3E"/><circle cx="128" cy="16" r=".9" fill="#3E3E3E"/><circle cx="144" cy="16" r=".9" fill="#3E3E3E"/><circle cx="160" cy="16" r=".9" fill="#3E3E3E"/><circle cx="176" cy="16" r=".9" fill="#3E3E3E"/><circle cx="192" cy="16" r=".9" fill="#3E3E3E"/><circle cx="208" cy="16" r=".9" fill="#3E3E3E"/><circle cx="224" cy="16" r=".9" fill="#3E3E3E"/><circle cx="240" cy="16" r=".9" fill="#3E3E3E"/><circle cx="256" cy="16" r=".9" fill="#3E3E3E"/><circle cx="272" cy="16" r=".9" fill="#3E3E3E"/><circle cx="288" cy="16" r=".9" fill="#3E3E3E"/><circle cx="304" cy="16" r=".9" fill="#3E3E3E"/><circle cx="320" cy="16" r=".9" fill="#3E3E3E"/><circle cx="336" cy="16" r=".9" fill="#3E3E3E"/><circle cx="16" cy="32" r=".9" fill="#3E3E3E"/><circle cx="32" cy="32" r=".9" fill="#3E3E3E"/><circle cx="48" cy="32" r=".9" fill="#3E3E3E"/><circle cx="64" cy="32" r=".9" fill="#3E3E3E"/><circle cx="80" cy="32" r=".9" fill="#3E3E3E"/><circle cx="96" cy="32" r=".9" fill="#3E3E3E"/><circle cx="112" cy="32" r=".9" fill="#3E3E3E"/><circle cx="128" cy="32" r=".9" fill="#3E3E3E"/><circle cx="144" cy="32" r=".9" fill="#3E3E3E"/><circle cx="160" cy="32" r=".9" fill="#3E3E3E"/><circle cx="176" cy="32" r=".9" fill="#3E3E3E"/><circle cx="192" cy="32" r=".9" fill="#3E3E3E"/><circle cx="208" cy="32" r=".9" fill="#3E3E3E"/><circle cx="224" cy="32" r=".9" fill="#3E3E3E"/><circle cx="240" cy="32" r=".9" fill="#3E3E3E"/><circle cx="256" cy="32" r=".9" fill="#3E3E3E"/><circle cx="272" cy="32" r=".9" fill="#3E3E3E"/><circle cx="288" cy="32" r=".9" fill="#3E3E3E"/><circle cx="304" cy="32" r=".9" fill="#3E3E3E"/><circle cx="320" cy="32" r=".9" fill="#3E3E3E"/><circle cx="336" cy="32" r=".9" fill="#3E3E3E"/><circle cx="16" cy="48" r=".9" fill="#3E3E3E"/><circle cx="32" cy="48" r=".9" fill="#3E3E3E"/><circle cx="48" cy="48" r=".9" fill="#3E3E3E"/><circle cx="64" cy="48" r=".9" fill="#3E3E3E"/><circle cx="80" cy="48" r=".9" fill="#3E3E3E"/><circle cx="96" cy="48" r=".9" fill="#3E3E3E"/><circle cx="112" cy="48" r=".9" fill="#3E3E3E"/><circle cx="128" cy="48" r=".9" fill="#3E3E3E"/><circle cx="144" cy="48" r=".9" fill="#3E3E3E"/><circle cx="160" cy="48" r=".9" fill="#3E3E3E"/><circle cx="176" cy="48" r=".9" fill="#3E3E3E"/><circle cx="192" cy="48" r=".9" fill="#3E3E3E"/><circle cx="208" cy="48" r=".9" fill="#3E3E3E"/><circle cx="224" cy="48" r=".9" fill="#3E3E3E"/><circle cx="240" cy="48" r=".9" fill="#3E3E3E"/><circle cx="256" cy="48" r=".9" fill="#3E3E3E"/><circle cx="272" cy="48" r=".9" fill="#3E3E3E"/><circle cx="288" cy="48" r=".9" fill="#3E3E3E"/><circle cx="304" cy="48" r=".9" fill="#3E3E3E"/><circle cx="320" cy="48" r=".9" fill="#3E3E3E"/><circle cx="336" cy="48" r=".9" fill="#3E3E3E"/><circle cx="16" cy="64" r=".9" fill="#3E3E3E"/><circle cx="32" cy="64" r=".9" fill="#3E3E3E"/><circle cx="48" cy="64" r=".9" fill="#3E3E3E"/><circle cx="64" cy="64" r=".9" fill="#3E3E3E"/><circle cx="80" cy="64" r=".9" fill="#3E3E3E"/><circle cx="96" cy="64" r=".9" fill="#3E3E3E"/><circle cx="112" cy="64" r=".9" fill="#3E3E3E"/><circle cx="128" cy="64" r=".9" fill="#3E3E3E"/><circle cx="144" cy="64" r=".9" fill="#3E3E3E"/><circle cx="160" cy="64" r=".9" fill="#3E3E3E"/><circle cx="176" cy="64" r=".9" fill="#3E3E3E"/><circle cx="192" cy="64" r=".9" fill="#3E3E3E"/><circle cx="208" cy="64" r=".9" fill="#3E3E3E"/><circle cx="224" cy="64" r=".9" fill="#3E3E3E"/><circle cx="240" cy="64" r=".9" fill="#3E3E3E"/><circle cx="256" cy="64" r=".9" fill="#3E3E3E"/><circle cx="272" cy="64" r=".9" fill="#3E3E3E"/><circle cx="288" cy="64" r=".9" fill="#3E3E3E"/><circle cx="304" cy="64" r=".9" fill="#3E3E3E"/><circle cx="320" cy="64" r=".9" fill="#3E3E3E"/><circle cx="336" cy="64" r=".9" fill="#3E3E3E"/><circle cx="16" cy="80" r=".9" fill="#3E3E3E"/><circle cx="32" cy="80" r=".9" fill="#3E3E3E"/><circle cx="48" cy="80" r=".9" fill="#3E3E3E"/><circle cx="64" cy="80" r=".9" fill="#3E3E3E"/><circle cx="80" cy="80" r=".9" fill="#3E3E3E"/><circle cx="96" cy="80" r=".9" fill="#3E3E3E"/><circle cx="112" cy="80" r=".9" fill="#3E3E3E"/><circle cx="128" cy="80" r=".9" fill="#3E3E3E"/><circle cx="144" cy="80" r=".9" fill="#3E3E3E"/><circle cx="160" cy="80" r=".9" fill="#3E3E3E"/><circle cx="176" cy="80" r=".9" fill="#3E3E3E"/><circle cx="192" cy="80" r=".9" fill="#3E3E3E"/><circle cx="208" cy="80" r=".9" fill="#3E3E3E"/><circle cx="224" cy="80" r=".9" fill="#3E3E3E"/><circle cx="240" cy="80" r=".9" fill="#3E3E3E"/><circle cx="256" cy="80" r=".9" fill="#3E3E3E"/><circle cx="272" cy="80" r=".9" fill="#3E3E3E"/><circle cx="288" cy="80" r=".9" fill="#3E3E3E"/><circle cx="304" cy="80" r=".9" fill="#3E3E3E"/><circle cx="320" cy="80" r=".9" fill="#3E3E3E"/><circle cx="336" cy="80" r=".9" fill="#3E3E3E"/><circle cx="16" cy="96" r=".9" fill="#3E3E3E"/><circle cx="32" cy="96" r=".9" fill="#3E3E3E"/><circle cx="48" cy="96" r=".9" fill="#3E3E3E"/><circle cx="64" cy="96" r=".9" fill="#3E3E3E"/><circle cx="80" cy="96" r=".9" fill="#3E3E3E"/><circle cx="96" cy="96" r=".9" fill="#3E3E3E"/><circle cx="112" cy="96" r=".9" fill="#3E3E3E"/><circle cx="128" cy="96" r=".9" fill="#3E3E3E"/><circle cx="144" cy="96" r=".9" fill="#3E3E3E"/><circle cx="160" cy="96" r=".9" fill="#3E3E3E"/><circle cx="176" cy="96" r=".9" fill="#3E3E3E"/><circle cx="192" cy="96" r=".9" fill="#3E3E3E"/><circle cx="208" cy="96" r=".9" fill="#3E3E3E"/><circle cx="224" cy="96" r=".9" fill="#3E3E3E"/><circle cx="240" cy="96" r=".9" fill="#3E3E3E"/><circle cx="256" cy="96" r=".9" fill="#3E3E3E"/><circle cx="272" cy="96" r=".9" fill="#3E3E3E"/><circle cx="288" cy="96" r=".9" fill="#3E3E3E"/><circle cx="304" cy="96" r=".9" fill="#3E3E3E"/><circle cx="320" cy="96" r=".9" fill="#3E3E3E"/><circle cx="336" cy="96" r=".9" fill="#3E3E3E"/><circle cx="16" cy="112" r=".9" fill="#3E3E3E"/><circle cx="32" cy="112" r=".9" fill="#3E3E3E"/><circle cx="48" cy="112" r=".9" fill="#3E3E3E"/><circle cx="64" cy="112" r=".9" fill="#3E3E3E"/><circle cx="80" cy="112" r=".9" fill="#3E3E3E"/><circle cx="96" cy="112" r=".9" fill="#3E3E3E"/><circle cx="112" cy="112" r=".9" fill="#3E3E3E"/><circle cx="128" cy="112" r=".9" fill="#3E3E3E"/><circle cx="144" cy="112" r=".9" fill="#3E3E3E"/><circle cx="160" cy="112" r=".9" fill="#3E3E3E"/><circle cx="176" cy="112" r=".9" fill="#3E3E3E"/><circle cx="192" cy="112" r=".9" fill="#3E3E3E"/><circle cx="208" cy="112" r=".9" fill="#3E3E3E"/><circle cx="224" cy="112" r=".9" fill="#3E3E3E"/><circle cx="240" cy="112" r=".9" fill="#3E3E3E"/><circle cx="256" cy="112" r=".9" fill="#3E3E3E"/><circle cx="272" cy="112" r=".9" fill="#3E3E3E"/><circle cx="288" cy="112" r=".9" fill="#3E3E3E"/><circle cx="304" cy="112" r=".9" fill="#3E3E3E"/><circle cx="320" cy="112" r=".9" fill="#3E3E3E"/><circle cx="336" cy="112" r=".9" fill="#3E3E3E"/><circle cx="16" cy="128" r=".9" fill="#3E3E3E"/><circle cx="32" cy="128" r=".9" fill="#3E3E3E"/><circle cx="48" cy="128" r=".9" fill="#3E3E3E"/><circle cx="64" cy="128" r=".9" fill="#3E3E3E"/><circle cx="80" cy="128" r=".9" fill="#3E3E3E"/><circle cx="96" cy="128" r=".9" fill="#3E3E3E"/><circle cx="112" cy="128" r=".9" fill="#3E3E3E"/><circle cx="128" cy="128" r=".9" fill="#3E3E3E"/><circle cx="144" cy="128" r=".9" fill="#3E3E3E"/><circle cx="160" cy="128" r=".9" fill="#3E3E3E"/><circle cx="176" cy="128" r=".9" fill="#3E3E3E"/><circle cx="192" cy="128" r=".9" fill="#3E3E3E"/><circle cx="208" cy="128" r=".9" fill="#3E3E3E"/><circle cx="224" cy="128" r=".9" fill="#3E3E3E"/><circle cx="240" cy="128" r=".9" fill="#3E3E3E"/><circle cx="256" cy="128" r=".9" fill="#3E3E3E"/><circle cx="272" cy="128" r=".9" fill="#3E3E3E"/><circle cx="288" cy="128" r=".9" fill="#3E3E3E"/><circle cx="304" cy="128" r=".9" fill="#3E3E3E"/><circle cx="320" cy="128" r=".9" fill="#3E3E3E"/><circle cx="336" cy="128" r=".9" fill="#3E3E3E"/><circle cx="16" cy="144" r=".9" fill="#3E3E3E"/><circle cx="32" cy="144" r=".9" fill="#3E3E3E"/><circle cx="48" cy="144" r=".9" fill="#3E3E3E"/><circle cx="64" cy="144" r=".9" fill="#3E3E3E"/><circle cx="80" cy="144" r=".9" fill="#3E3E3E"/><circle cx="96" cy="144" r=".9" fill="#3E3E3E"/><circle cx="112" cy="144" r=".9" fill="#3E3E3E"/><circle cx="128" cy="144" r=".9" fill="#3E3E3E"/><circle cx="144" cy="144" r=".9" fill="#3E3E3E"/><circle cx="160" cy="144" r=".9" fill="#3E3E3E"/><circle cx="176" cy="144" r=".9" fill="#3E3E3E"/><circle cx="192" cy="144" r=".9" fill="#3E3E3E"/><circle cx="208" cy="144" r=".9" fill="#3E3E3E"/><circle cx="224" cy="144" r=".9" fill="#3E3E3E"/><circle cx="240" cy="144" r=".9" fill="#3E3E3E"/><circle cx="256" cy="144" r=".9" fill="#3E3E3E"/><circle cx="272" cy="144" r=".9" fill="#3E3E3E"/><circle cx="288" cy="144" r=".9" fill="#3E3E3E"/><circle cx="304" cy="144" r=".9" fill="#3E3E3E"/><circle cx="320" cy="144" r=".9" fill="#3E3E3E"/><circle cx="336" cy="144" r=".9" fill="#3E3E3E"/><circle cx="16" cy="160" r=".9" fill="#3E3E3E"/><circle cx="32" cy="160" r=".9" fill="#3E3E3E"/><circle cx="48" cy="160" r=".9" fill="#3E3E3E"/><circle cx="64" cy="160" r=".9" fill="#3E3E3E"/><circle cx="80" cy="160" r=".9" fill="#3E3E3E"/><circle cx="96" cy="160" r=".9" fill="#3E3E3E"/><circle cx="112" cy="160" r=".9" fill="#3E3E3E"/><circle cx="128" cy="160" r=".9" fill="#3E3E3E"/><circle cx="144" cy="160" r=".9" fill="#3E3E3E"/><circle cx="160" cy="160" r=".9" fill="#3E3E3E"/><circle cx="176" cy="160" r=".9" fill="#3E3E3E"/><circle cx="192" cy="160" r=".9" fill="#3E3E3E"/><circle cx="208" cy="160" r=".9" fill="#3E3E3E"/><circle cx="224" cy="160" r=".9" fill="#3E3E3E"/><circle cx="240" cy="160" r=".9" fill="#3E3E3E"/><circle cx="256" cy="160" r=".9" fill="#3E3E3E"/><circle cx="272" cy="160" r=".9" fill="#3E3E3E"/><circle cx="288" cy="160" r=".9" fill="#3E3E3E"/><circle cx="304" cy="160" r=".9" fill="#3E3E3E"/><circle cx="320" cy="160" r=".9" fill="#3E3E3E"/><circle cx="336" cy="160" r=".9" fill="#3E3E3E"/><circle cx="16" cy="176" r=".9" fill="#3E3E3E"/><circle cx="32" cy="176" r=".9" fill="#3E3E3E"/><circle cx="48" cy="176" r=".9" fill="#3E3E3E"/><circle cx="64" cy="176" r=".9" fill="#3E3E3E"/><circle cx="80" cy="176" r=".9" fill="#3E3E3E"/><circle cx="96" cy="176" r=".9" fill="#3E3E3E"/><circle cx="112" cy="176" r=".9" fill="#3E3E3E"/><circle cx="128" cy="176" r=".9" fill="#3E3E3E"/><circle cx="144" cy="176" r=".9" fill="#3E3E3E"/><circle cx="160" cy="176" r=".9" fill="#3E3E3E"/><circle cx="176" cy="176" r=".9" fill="#3E3E3E"/><circle cx="192" cy="176" r=".9" fill="#3E3E3E"/><circle cx="208" cy="176" r=".9" fill="#3E3E3E"/><circle cx="224" cy="176" r=".9" fill="#3E3E3E"/><circle cx="240" cy="176" r=".9" fill="#3E3E3E"/><circle cx="256" cy="176" r=".9" fill="#3E3E3E"/><circle cx="272" cy="176" r=".9" fill="#3E3E3E"/><circle cx="288" cy="176" r=".9" fill="#3E3E3E"/><circle cx="304" cy="176" r=".9" fill="#3E3E3E"/><circle cx="320" cy="176" r=".9" fill="#3E3E3E"/><circle cx="336" cy="176" r=".9" fill="#3E3E3E"/><circle cx="16" cy="192" r=".9" fill="#3E3E3E"/><circle cx="32" cy="192" r=".9" fill="#3E3E3E"/><circle cx="48" cy="192" r=".9" fill="#3E3E3E"/><circle cx="64" cy="192" r=".9" fill="#3E3E3E"/><circle cx="80" cy="192" r=".9" fill="#3E3E3E"/><circle cx="96" cy="192" r=".9" fill="#3E3E3E"/><circle cx="112" cy="192" r=".9" fill="#3E3E3E"/><circle cx="128" cy="192" r=".9" fill="#3E3E3E"/><circle cx="144" cy="192" r=".9" fill="#3E3E3E"/><circle cx="160" cy="192" r=".9" fill="#3E3E3E"/><circle cx="176" cy="192" r=".9" fill="#3E3E3E"/><circle cx="192" cy="192" r=".9" fill="#3E3E3E"/><circle cx="208" cy="192" r=".9" fill="#3E3E3E"/><circle cx="224" cy="192" r=".9" fill="#3E3E3E"/><circle cx="240" cy="192" r=".9" fill="#3E3E3E"/><circle cx="256" cy="192" r=".9" fill="#3E3E3E"/><circle cx="272" cy="192" r=".9" fill="#3E3E3E"/><circle cx="288" cy="192" r=".9" fill="#3E3E3E"/><circle cx="304" cy="192" r=".9" fill="#3E3E3E"/><circle cx="320" cy="192" r=".9" fill="#3E3E3E"/><circle cx="336" cy="192" r=".9" fill="#3E3E3E"/><circle cx="16" cy="208" r=".9" fill="#3E3E3E"/><circle cx="32" cy="208" r=".9" fill="#3E3E3E"/><circle cx="48" cy="208" r=".9" fill="#3E3E3E"/><circle cx="64" cy="208" r=".9" fill="#3E3E3E"/><circle cx="80" cy="208" r=".9" fill="#3E3E3E"/><circle cx="96" cy="208" r=".9" fill="#3E3E3E"/><circle cx="112" cy="208" r=".9" fill="#3E3E3E"/><circle cx="128" cy="208" r=".9" fill="#3E3E3E"/><circle cx="144" cy="208" r=".9" fill="#3E3E3E"/><circle cx="160" cy="208" r=".9" fill="#3E3E3E"/><circle cx="176" cy="208" r=".9" fill="#3E3E3E"/><circle cx="192" cy="208" r=".9" fill="#3E3E3E"/><circle cx="208" cy="208" r=".9" fill="#3E3E3E"/><circle cx="224" cy="208" r=".9" fill="#3E3E3E"/><circle cx="240" cy="208" r=".9" fill="#3E3E3E"/><circle cx="256" cy="208" r=".9" fill="#3E3E3E"/><circle cx="272" cy="208" r=".9" fill="#3E3E3E"/><circle cx="288" cy="208" r=".9" fill="#3E3E3E"/><circle cx="304" cy="208" r=".9" fill="#3E3E3E"/><circle cx="320" cy="208" r=".9" fill="#3E3E3E"/><circle cx="336" cy="208" r=".9" fill="#3E3E3E"/><circle cx="16" cy="224" r=".9" fill="#3E3E3E"/><circle cx="32" cy="224" r=".9" fill="#3E3E3E"/><circle cx="48" cy="224" r=".9" fill="#3E3E3E"/><circle cx="64" cy="224" r=".9" fill="#3E3E3E"/><circle cx="80" cy="224" r=".9" fill="#3E3E3E"/><circle cx="96" cy="224" r=".9" fill="#3E3E3E"/><circle cx="112" cy="224" r=".9" fill="#3E3E3E"/><circle cx="128" cy="224" r=".9" fill="#3E3E3E"/><circle cx="144" cy="224" r=".9" fill="#3E3E3E"/><circle cx="160" cy="224" r=".9" fill="#3E3E3E"/><circle cx="176" cy="224" r=".9" fill="#3E3E3E"/><circle cx="192" cy="224" r=".9" fill="#3E3E3E"/><circle cx="208" cy="224" r=".9" fill="#3E3E3E"/><circle cx="224" cy="224" r=".9" fill="#3E3E3E"/><circle cx="240" cy="224" r=".9" fill="#3E3E3E"/><circle cx="256" cy="224" r=".9" fill="#3E3E3E"/><circle cx="272" cy="224" r=".9" fill="#3E3E3E"/><circle cx="288" cy="224" r=".9" fill="#3E3E3E"/><circle cx="304" cy="224" r=".9" fill="#3E3E3E"/><circle cx="320" cy="224" r=".9" fill="#3E3E3E"/><circle cx="336" cy="224" r=".9" fill="#3E3E3E"/><circle cx="16" cy="240" r=".9" fill="#3E3E3E"/><circle cx="32" cy="240" r=".9" fill="#3E3E3E"/><circle cx="48" cy="240" r=".9" fill="#3E3E3E"/><circle cx="64" cy="240" r=".9" fill="#3E3E3E"/><circle cx="80" cy="240" r=".9" fill="#3E3E3E"/><circle cx="96" cy="240" r=".9" fill="#3E3E3E"/><circle cx="112" cy="240" r=".9" fill="#3E3E3E"/><circle cx="128" cy="240" r=".9" fill="#3E3E3E"/><circle cx="144" cy="240" r=".9" fill="#3E3E3E"/><circle cx="160" cy="240" r=".9" fill="#3E3E3E"/><circle cx="176" cy="240" r=".9" fill="#3E3E3E"/><circle cx="192" cy="240" r=".9" fill="#3E3E3E"/><circle cx="208" cy="240" r=".9" fill="#3E3E3E"/><circle cx="224" cy="240" r=".9" fill="#3E3E3E"/><circle cx="240" cy="240" r=".9" fill="#3E3E3E"/><circle cx="256" cy="240" r=".9" fill="#3E3E3E"/><circle cx="272" cy="240" r=".9" fill="#3E3E3E"/><circle cx="288" cy="240" r=".9" fill="#3E3E3E"/><circle cx="304" cy="240" r=".9" fill="#3E3E3E"/><circle cx="320" cy="240" r=".9" fill="#3E3E3E"/><circle cx="336" cy="240" r=".9" fill="#3E3E3E"/><circle cx="16" cy="256" r=".9" fill="#3E3E3E"/><circle cx="32" cy="256" r=".9" fill="#3E3E3E"/><circle cx="48" cy="256" r=".9" fill="#3E3E3E"/><circle cx="64" cy="256" r=".9" fill="#3E3E3E"/><circle cx="80" cy="256" r=".9" fill="#3E3E3E"/><circle cx="96" cy="256" r=".9" fill="#3E3E3E"/><circle cx="112" cy="256" r=".9" fill="#3E3E3E"/><circle cx="128" cy="256" r=".9" fill="#3E3E3E"/><circle cx="144" cy="256" r=".9" fill="#3E3E3E"/><circle cx="160" cy="256" r=".9" fill="#3E3E3E"/><circle cx="176" cy="256" r=".9" fill="#3E3E3E"/><circle cx="192" cy="256" r=".9" fill="#3E3E3E"/><circle cx="208" cy="256" r=".9" fill="#3E3E3E"/><circle cx="224" cy="256" r=".9" fill="#3E3E3E"/><circle cx="240" cy="256" r=".9" fill="#3E3E3E"/><circle cx="256" cy="256" r=".9" fill="#3E3E3E"/><circle cx="272" cy="256" r=".9" fill="#3E3E3E"/><circle cx="288" cy="256" r=".9" fill="#3E3E3E"/><circle cx="304" cy="256" r=".9" fill="#3E3E3E"/><circle cx="320" cy="256" r=".9" fill="#3E3E3E"/><circle cx="336" cy="256" r=".9" fill="#3E3E3E"/><circle cx="16" cy="272" r=".9" fill="#3E3E3E"/><circle cx="32" cy="272" r=".9" fill="#3E3E3E"/><circle cx="48" cy="272" r=".9" fill="#3E3E3E"/><circle cx="64" cy="272" r=".9" fill="#3E3E3E"/><circle cx="80" cy="272" r=".9" fill="#3E3E3E"/><circle cx="96" cy="272" r=".9" fill="#3E3E3E"/><circle cx="112" cy="272" r=".9" fill="#3E3E3E"/><circle cx="128" cy="272" r=".9" fill="#3E3E3E"/><circle cx="144" cy="272" r=".9" fill="#3E3E3E"/><circle cx="160" cy="272" r=".9" fill="#3E3E3E"/><circle cx="176" cy="272" r=".9" fill="#3E3E3E"/><circle cx="192" cy="272" r=".9" fill="#3E3E3E"/><circle cx="208" cy="272" r=".9" fill="#3E3E3E"/><circle cx="224" cy="272" r=".9" fill="#3E3E3E"/><circle cx="240" cy="272" r=".9" fill="#3E3E3E"/><circle cx="256" cy="272" r=".9" fill="#3E3E3E"/><circle cx="272" cy="272" r=".9" fill="#3E3E3E"/><circle cx="288" cy="272" r=".9" fill="#3E3E3E"/><circle cx="304" cy="272" r=".9" fill="#3E3E3E"/><circle cx="320" cy="272" r=".9" fill="#3E3E3E"/><circle cx="336" cy="272" r=".9" fill="#3E3E3E"/><circle cx="16" cy="288" r=".9" fill="#3E3E3E"/><circle cx="32" cy="288" r=".9" fill="#3E3E3E"/><circle cx="48" cy="288" r=".9" fill="#3E3E3E"/><circle cx="64" cy="288" r=".9" fill="#3E3E3E"/><circle cx="80" cy="288" r=".9" fill="#3E3E3E"/><circle cx="96" cy="288" r=".9" fill="#3E3E3E"/><circle cx="112" cy="288" r=".9" fill="#3E3E3E"/><circle cx="128" cy="288" r=".9" fill="#3E3E3E"/><circle cx="144" cy="288" r=".9" fill="#3E3E3E"/><circle cx="160" cy="288" r=".9" fill="#3E3E3E"/><circle cx="176" cy="288" r=".9" fill="#3E3E3E"/><circle cx="192" cy="288" r=".9" fill="#3E3E3E"/><circle cx="208" cy="288" r=".9" fill="#3E3E3E"/><circle cx="224" cy="288" r=".9" fill="#3E3E3E"/><circle cx="240" cy="288" r=".9" fill="#3E3E3E"/><circle cx="256" cy="288" r=".9" fill="#3E3E3E"/><circle cx="272" cy="288" r=".9" fill="#3E3E3E"/><circle cx="288" cy="288" r=".9" fill="#3E3E3E"/><circle cx="304" cy="288" r=".9" fill="#3E3E3E"/><circle cx="320" cy="288" r=".9" fill="#3E3E3E"/><circle cx="336" cy="288" r=".9" fill="#3E3E3E"/><circle cx="16" cy="304" r=".9" fill="#3E3E3E"/><circle cx="32" cy="304" r=".9" fill="#3E3E3E"/><circle cx="48" cy="304" r=".9" fill="#3E3E3E"/><circle cx="64" cy="304" r=".9" fill="#3E3E3E"/><circle cx="80" cy="304" r=".9" fill="#3E3E3E"/><circle cx="96" cy="304" r=".9" fill="#3E3E3E"/><circle cx="112" cy="304" r=".9" fill="#3E3E3E"/><circle cx="128" cy="304" r=".9" fill="#3E3E3E"/><circle cx="144" cy="304" r=".9" fill="#3E3E3E"/><circle cx="160" cy="304" r=".9" fill="#3E3E3E"/><circle cx="176" cy="304" r=".9" fill="#3E3E3E"/><circle cx="192" cy="304" r=".9" fill="#3E3E3E"/><circle cx="208" cy="304" r=".9" fill="#3E3E3E"/><circle cx="224" cy="304" r=".9" fill="#3E3E3E"/><circle cx="240" cy="304" r=".9" fill="#3E3E3E"/><circle cx="256" cy="304" r=".9" fill="#3E3E3E"/><circle cx="272" cy="304" r=".9" fill="#3E3E3E"/><circle cx="288" cy="304" r=".9" fill="#3E3E3E"/><circle cx="304" cy="304" r=".9" fill="#3E3E3E"/><circle cx="320" cy="304" r=".9" fill="#3E3E3E"/><circle cx="336" cy="304" r=".9" fill="#3E3E3E"/><circle cx="16" cy="320" r=".9" fill="#3E3E3E"/><circle cx="32" cy="320" r=".9" fill="#3E3E3E"/><circle cx="48" cy="320" r=".9" fill="#3E3E3E"/><circle cx="64" cy="320" r=".9" fill="#3E3E3E"/><circle cx="80" cy="320" r=".9" fill="#3E3E3E"/><circle cx="96" cy="320" r=".9" fill="#3E3E3E"/><circle cx="112" cy="320" r=".9" fill="#3E3E3E"/><circle cx="128" cy="320" r=".9" fill="#3E3E3E"/><circle cx="144" cy="320" r=".9" fill="#3E3E3E"/><circle cx="160" cy="320" r=".9" fill="#3E3E3E"/><circle cx="176" cy="320" r=".9" fill="#3E3E3E"/><circle cx="192" cy="320" r=".9" fill="#3E3E3E"/><circle cx="208" cy="320" r=".9" fill="#3E3E3E"/><circle cx="224" cy="320" r=".9" fill="#3E3E3E"/><circle cx="240" cy="320" r=".9" fill="#3E3E3E"/><circle cx="256" cy="320" r=".9" fill="#3E3E3E"/><circle cx="272" cy="320" r=".9" fill="#3E3E3E"/><circle cx="288" cy="320" r=".9" fill="#3E3E3E"/><circle cx="304" cy="320" r=".9" fill="#3E3E3E"/><circle cx="320" cy="320" r=".9" fill="#3E3E3E"/><circle cx="336" cy="320" r=".9" fill="#3E3E3E"/><circle cx="16" cy="336" r=".9" fill="#3E3E3E"/><circle cx="32" cy="336" r=".9" fill="#3E3E3E"/><circle cx="48" cy="336" r=".9" fill="#3E3E3E"/><circle cx="64" cy="336" r=".9" fill="#3E3E3E"/><circle cx="80" cy="336" r=".9" fill="#3E3E3E"/><circle cx="96" cy="336" r=".9" fill="#3E3E3E"/><circle cx="112" cy="336" r=".9" fill="#3E3E3E"/><circle cx="128" cy="336" r=".9" fill="#3E3E3E"/><circle cx="144" cy="336" r=".9" fill="#3E3E3E"/><circle cx="160" cy="336" r=".9" fill="#3E3E3E"/><circle cx="176" cy="336" r=".9" fill="#3E3E3E"/><circle cx="192" cy="336" r=".9" fill="#3E3E3E"/><circle cx="208" cy="336" r=".9" fill="#3E3E3E"/><circle cx="224" cy="336" r=".9" fill="#3E3E3E"/><circle cx="240" cy="336" r=".9" fill="#3E3E3E"/><circle cx="256" cy="336" r=".9" fill="#3E3E3E"/><circle cx="272" cy="336" r=".9" fill="#3E3E3E"/><circle cx="288" cy="336" r=".9" fill="#3E3E3E"/><circle cx="304" cy="336" r=".9" fill="#3E3E3E"/><circle cx="320" cy="336" r=".9" fill="#3E3E3E"/><circle cx="336" cy="336" r=".9" fill="#3E3E3E"/><circle cx="16" cy="352" r=".9" fill="#3E3E3E"/><circle cx="32" cy="352" r=".9" fill="#3E3E3E"/><circle cx="48" cy="352" r=".9" fill="#3E3E3E"/><circle cx="64" cy="352" r=".9" fill="#3E3E3E"/><circle cx="80" cy="352" r=".9" fill="#3E3E3E"/><circle cx="96" cy="352" r=".9" fill="#3E3E3E"/><circle cx="112" cy="352" r=".9" fill="#3E3E3E"/><circle cx="128" cy="352" r=".9" fill="#3E3E3E"/><circle cx="144" cy="352" r=".9" fill="#3E3E3E"/><circle cx="160" cy="352" r=".9" fill="#3E3E3E"/><circle cx="176" cy="352" r=".9" fill="#3E3E3E"/><circle cx="192" cy="352" r=".9" fill="#3E3E3E"/><circle cx="208" cy="352" r=".9" fill="#3E3E3E"/><circle cx="224" cy="352" r=".9" fill="#3E3E3E"/><circle cx="240" cy="352" r=".9" fill="#3E3E3E"/><circle cx="256" cy="352" r=".9" fill="#3E3E3E"/><circle cx="272" cy="352" r=".9" fill="#3E3E3E"/><circle cx="288" cy="352" r=".9" fill="#3E3E3E"/><circle cx="304" cy="352" r=".9" fill="#3E3E3E"/><circle cx="320" cy="352" r=".9" fill="#3E3E3E"/><circle cx="336" cy="352" r=".9" fill="#3E3E3E"/><circle cx="16" cy="368" r=".9" fill="#3E3E3E"/><circle cx="32" cy="368" r=".9" fill="#3E3E3E"/><circle cx="48" cy="368" r=".9" fill="#3E3E3E"/><circle cx="64" cy="368" r=".9" fill="#3E3E3E"/><circle cx="80" cy="368" r=".9" fill="#3E3E3E"/><circle cx="96" cy="368" r=".9" fill="#3E3E3E"/><circle cx="112" cy="368" r=".9" fill="#3E3E3E"/><circle cx="128" cy="368" r=".9" fill="#3E3E3E"/><circle cx="144" cy="368" r=".9" fill="#3E3E3E"/><circle cx="160" cy="368" r=".9" fill="#3E3E3E"/><circle cx="176" cy="368" r=".9" fill="#3E3E3E"/><circle cx="192" cy="368" r=".9" fill="#3E3E3E"/><circle cx="208" cy="368" r=".9" fill="#3E3E3E"/><circle cx="224" cy="368" r=".9" fill="#3E3E3E"/><circle cx="240" cy="368" r=".9" fill="#3E3E3E"/><circle cx="256" cy="368" r=".9" fill="#3E3E3E"/><circle cx="272" cy="368" r=".9" fill="#3E3E3E"/><circle cx="288" cy="368" r=".9" fill="#3E3E3E"/><circle cx="304" cy="368" r=".9" fill="#3E3E3E"/><circle cx="320" cy="368" r=".9" fill="#3E3E3E"/><circle cx="336" cy="368" r=".9" fill="#3E3E3E"/><circle cx="16" cy="384" r=".9" fill="#3E3E3E"/><circle cx="32" cy="384" r=".9" fill="#3E3E3E"/><circle cx="48" cy="384" r=".9" fill="#3E3E3E"/><circle cx="64" cy="384" r=".9" fill="#3E3E3E"/><circle cx="80" cy="384" r=".9" fill="#3E3E3E"/><circle cx="96" cy="384" r=".9" fill="#3E3E3E"/><circle cx="112" cy="384" r=".9" fill="#3E3E3E"/><circle cx="128" cy="384" r=".9" fill="#3E3E3E"/><circle cx="144" cy="384" r=".9" fill="#3E3E3E"/><circle cx="160" cy="384" r=".9" fill="#3E3E3E"/><circle cx="176" cy="384" r=".9" fill="#3E3E3E"/><circle cx="192" cy="384" r=".9" fill="#3E3E3E"/><circle cx="208" cy="384" r=".9" fill="#3E3E3E"/><circle cx="224" cy="384" r=".9" fill="#3E3E3E"/><circle cx="240" cy="384" r=".9" fill="#3E3E3E"/><circle cx="256" cy="384" r=".9" fill="#3E3E3E"/><circle cx="272" cy="384" r=".9" fill="#3E3E3E"/><circle cx="288" cy="384" r=".9" fill="#3E3E3E"/><circle cx="304" cy="384" r=".9" fill="#3E3E3E"/><circle cx="320" cy="384" r=".9" fill="#3E3E3E"/><circle cx="336" cy="384" r=".9" fill="#3E3E3E"/><rect x="10.5" y="10.5" width="323" height="369" fill="none" stroke="#B68757" stroke-opacity=".38" stroke-width="1"/><rect x="56" y="118" width="24" height="78" fill="#2E2E2E" stroke="#B68757" stroke-width="1.5"/><rect x="96" y="100" width="24" height="96" fill="#2E2E2E" stroke="#B68757" stroke-width="1.5"/><rect x="136" y="84" width="24" height="112" fill="#2E2E2E" stroke="#B68757" stroke-width="1.5"/><rect x="176" y="92" width="24" height="104" fill="#2E2E2E" stroke="#B68757" stroke-width="1.5"/><rect x="216" y="126" width="24" height="70" fill="#2E2E2E" stroke="#B68757" stroke-width="1.5"/><rect x="256" y="138" width="24" height="58" fill="#2E2E2E" stroke="#B68757" stroke-width="1.5"/><rect x="216" y="126" width="24" height="70" fill="#B68757" fill-opacity=".28" stroke="none"/><rect x="256" y="138" width="24" height="58" fill="#B68757" fill-opacity=".28" stroke="none"/><path d="M40 196H304" stroke="#B68757" stroke-width="1.5" fill="none"/><path d="M68 150L108 146L148 140L188 118L228 84L268 62" stroke="#D6AD82" stroke-width="1.8" fill="none" stroke-linejoin="round" stroke-linecap="round"/><circle cx="68" cy="150" r="3.2" fill="#2E2E2E" stroke="#D6AD82" stroke-width="1.6"/><circle cx="108" cy="146" r="3.2" fill="#2E2E2E" stroke="#D6AD82" stroke-width="1.6"/><circle cx="148" cy="140" r="3.2" fill="#2E2E2E" stroke="#D6AD82" stroke-width="1.6"/><circle cx="188" cy="118" r="3.2" fill="#2E2E2E" stroke="#D6AD82" stroke-width="1.6"/><circle cx="228" cy="84" r="3.2" fill="#2E2E2E" stroke="#D6AD82" stroke-width="1.6"/><circle cx="268" cy="62" r="3.2" fill="#2E2E2E" stroke="#D6AD82" stroke-width="1.6"/><g fill="none" stroke="#D6AD82" stroke-width="1.6" stroke-linecap="round"><circle cx="286" cy="44" r="5"/><circle cx="304" cy="62" r="5"/><path d="M306 40L284 66"/></g><g transform="translate(82 214) scale(1.8)" fill="none" stroke="#B68757" stroke-width="0.944" stroke-linecap="round" stroke-linejoin="round"><path d="M8 36L50 10L92 36Z" fill="#2E2E2E"/><circle cx="50" cy="26" r="4" stroke="#D6AD82"/><rect x="10" y="36" width="80" height="10" fill="#2E2E2E"/><rect x="17" y="46" width="9" height="32"/><rect x="37" y="46" width="9" height="32"/><rect x="54" y="46" width="9" height="32"/><rect x="74" y="46" width="9" height="32"/><rect x="8" y="78" width="84" height="6" fill="#2E2E2E"/><rect x="2" y="84" width="96" height="6" fill="#2E2E2E"/></g><g transform="translate(8 300) scale(0.72)" fill="none" stroke="#B68757" stroke-width="1.944" stroke-linecap="round" stroke-linejoin="round"><ellipse cx="50" cy="82" rx="26" ry="8" fill="#2E2E2E"/><ellipse cx="50" cy="70" rx="26" ry="8" fill="#2E2E2E"/><ellipse cx="50" cy="58" rx="26" ry="8" fill="#2E2E2E"/><ellipse cx="50" cy="46" rx="26" ry="8" fill="#2E2E2E"/><path d="M24 46V82M76 46V82" stroke="none"/></g><g transform="translate(264 300) scale(0.72)" fill="none" stroke="#B68757" stroke-width="1.944" stroke-linecap="round" stroke-linejoin="round"><ellipse cx="50" cy="82" rx="26" ry="8" fill="#2E2E2E"/><ellipse cx="50" cy="70" rx="26" ry="8" fill="#2E2E2E"/><ellipse cx="50" cy="58" rx="26" ry="8" fill="#2E2E2E"/><ellipse cx="50" cy="46" rx="26" ry="8" fill="#2E2E2E"/><path d="M24 46V82M76 46V82" stroke="none"/></g></svg>